<svg xmlns="http://www.w3.org/2000/svg" width="900" height="760" viewBox="0 0 900 760">
  <rect x="0" y="0" width="900" height="760" fill="#ffffff"/>
  

  <rect x="265" y="92" width="370" height="628" rx="14" fill="#111827" opacity="0.08"/>
  <rect x="290" y="116" width="320" height="580" rx="12" fill="#ffffff" stroke="#111827" opacity="0.35"/>

  <g font-family="Arial, sans-serif" font-size="18" fill="#111827">
    <text x="110" y="140">3.3V</text>
    <text x="110" y="168">I2C1_SDA</text>
    <text x="110" y="196">I2C1_SCL</text>
    <text x="110" y="224">GPIO09</text>
    <text x="110" y="252">GND</text>
    <text x="110" y="280">UART1_RTS*</text>
    <text x="110" y="308">SPI1_SCK</text>
    <text x="110" y="336">GPIO12</text>
    <text x="110" y="364">3.3V</text>
    <text x="110" y="392">SPI0_MOSI</text>
    <text x="110" y="420">SPI0_MISO</text>
    <text x="110" y="448">SPI0_SCK</text>
    <text x="110" y="476">GND</text>
    <text x="110" y="504">I2C0_SDA</text>
    <text x="110" y="532">GPIO01</text>
    <text x="110" y="560">GPIO11</text>
    <text x="110" y="588">GPIO13</text>
    <text x="110" y="616">I2S0_FS</text>
    <text x="110" y="644">SPI1_MOSI</text>
    <text x="110" y="672">GND</text>

    <text x="660" y="140">5.0V</text>
    <text x="660" y="168">5.0V</text>
    <text x="660" y="196">GND</text>
    <text x="660" y="224">UART1_TXD</text>
    <text x="660" y="252">UART1_RXD</text>
    <text x="660" y="280">I2S0_SCLK</text>
    <text x="660" y="308">GND</text>
    <text x="660" y="336">SPI1_CS1*</text>
    <text x="660" y="364">SPI1_CS0*</text>
    <text x="660" y="392">GND</text>
    <text x="660" y="420">SPI1_MISO</text>
    <text x="660" y="448">SPI0_CS0*</text>
    <text x="660" y="476">SPI0_CS1*</text>
    <text x="660" y="504">I2C0_SCL</text>
    <text x="660" y="532">GND</text>
    <text x="660" y="560">GPIO07</text>
    <text x="660" y="588">GND</text>
    <text x="660" y="616">UART1_CTS*</text>
    <text x="660" y="644">I2S0_DIN</text>
    <text x="660" y="672">I2S0_DOUT</text>
  </g>

  <g font-family="Arial, sans-serif" font-size="14" fill="#111827">
    <text x="328" y="136">1</text>
    <text x="560" y="136">2</text>
    <text x="328" y="164">3</text>
    <text x="560" y="164">4</text>
    <text x="328" y="192">5</text>
    <text x="560" y="192">6</text>
    <text x="328" y="220">7</text>
    <text x="560" y="220">8</text>
    <text x="328" y="248">9</text>
    <text x="556" y="248">10</text>
    <text x="324" y="276">11</text>
    <text x="556" y="276">12</text>
    <text x="324" y="304">13</text>
    <text x="556" y="304">14</text>
    <text x="324" y="332">15</text>
    <text x="556" y="332">16</text>
    <text x="324" y="360">17</text>
    <text x="556" y="360">18</text>
    <text x="324" y="388">19</text>
    <text x="556" y="388">20</text>
    <text x="324" y="416">21</text>
    <text x="556" y="416">22</text>
    <text x="324" y="444">23</text>
    <text x="556" y="444">24</text>
    <text x="324" y="472">25</text>
    <text x="556" y="472">26</text>
    <text x="324" y="500">27</text>
    <text x="556" y="500">28</text>
    <text x="324" y="528">29</text>
    <text x="556" y="528">30</text>
    <text x="324" y="556">31</text>
    <text x="556" y="556">32</text>
    <text x="324" y="584">33</text>
    <text x="556" y="584">34</text>
    <text x="324" y="612">35</text>
    <text x="556" y="612">36</text>
    <text x="324" y="640">37</text>
    <text x="556" y="640">38</text>
    <text x="324" y="668">39</text>
    <text x="556" y="668">40</text>
  </g>

  <g transform="translate(350 140)">
    <circle cx="0" cy="0" r="10" fill="#f59e0b"/>
    <circle cx="220" cy="0" r="10" fill="#ef4444"/>
    <circle cx="0" cy="28" r="10" fill="#111827" opacity="0.35"/>
    <circle cx="220" cy="28" r="10" fill="#ef4444"/>
    <circle cx="0" cy="56" r="10" fill="#111827" opacity="0.35"/>
    <circle cx="220" cy="56" r="10" fill="#22c55e"/>
    <circle cx="0" cy="84" r="10" fill="#111827" opacity="0.35"/>
    <circle cx="220" cy="84" r="10" fill="#111827" opacity="0.35"/>
    <circle cx="0" cy="112" r="10" fill="#22c55e"/>
    <circle cx="220" cy="112" r="10" fill="#111827" opacity="0.35"/>
    <circle cx="0" cy="140" r="10" fill="#111827" opacity="0.35"/>
    <circle cx="220" cy="140" r="10" fill="#111827" opacity="0.35"/>
    <circle cx="0" cy="168" r="10" fill="#111827" opacity="0.35"/>
    <circle cx="220" cy="168" r="10" fill="#22c55e"/>
    <circle cx="0" cy="196" r="10" fill="#111827" opacity="0.35"/>
    <circle cx="220" cy="196" r="10" fill="#111827" opacity="0.35"/>
    <circle cx="0" cy="224" r="10" fill="#f59e0b"/>
    <circle cx="220" cy="224" r="10" fill="#111827" opacity="0.35"/>
    <circle cx="0" cy="252" r="10" fill="#111827" opacity="0.35"/>
    <circle cx="220" cy="252" r="10" fill="#111827" opacity="0.35"/>
    <circle cx="0" cy="280" r="10" fill="#111827" opacity="0.35"/>
    <circle cx="220" cy="280" r="10" fill="#111827" opacity="0.35"/>
    <circle cx="0" cy="308" r="10" fill="#111827" opacity="0.35"/>
    <circle cx="220" cy="308" r="10" fill="#111827" opacity="0.35"/>
    <circle cx="0" cy="336" r="10" fill="#111827" opacity="0.35"/>
    <circle cx="220" cy="336" r="10" fill="#111827" opacity="0.35"/>
    <circle cx="0" cy="364" r="10" fill="#22c55e"/>
    <circle cx="220" cy="364" r="10" fill="#111827" opacity="0.35"/>
    <circle cx="0" cy="392" r="10" fill="#111827" opacity="0.35"/>
    <circle cx="220" cy="392" r="10" fill="#22c55e"/>
    <circle cx="0" cy="420" r="10" fill="#111827" opacity="0.35"/>
    <circle cx="220" cy="420" r="10" fill="#111827" opacity="0.35"/>
    <circle cx="0" cy="448" r="10" fill="#111827" opacity="0.35"/>
    <circle cx="220" cy="448" r="10" fill="#111827" opacity="0.35"/>
    <circle cx="0" cy="476" r="10" fill="#111827" opacity="0.35"/>
    <circle cx="220" cy="476" r="10" fill="#22c55e"/>
    <circle cx="0" cy="504" r="10" fill="#111827" opacity="0.35"/>
    <circle cx="220" cy="504" r="10" fill="#111827" opacity="0.35"/>
    <circle cx="0" cy="532" r="10" fill="#111827" opacity="0.35"/>
    <circle cx="220" cy="532" r="10" fill="#111827" opacity="0.35"/>
  </g>
</svg>
